<svg xmlns="http://www.w3.org/2000/svg" viewBox="0 0 500 400">
  <defs>
    <style>
      .coffee-text { font-family: Arial, sans-serif; font-weight: bold; }
      .ui-text { font-size: 120px; fill: #1a1a1a; }
      .coffee-label { font-size: 45px; fill: #2d2d2d; }
      .eatery-label { font-size: 40px; fill: #2d2d2d; }
    </style>
  </defs>
  
  <!-- Background -->
  <rect width="500" height="400" fill="white"/>
  
  <!-- Coffee Beans Design at Top -->
  <g transform="translate(250, 100)">
    <!-- Top center bean -->
    <path d="M 0,-40 Q -15,-60 -15,-80 Q -15,-95 0,-105 Q 15,-95 15,-80 Q 15,-60 0,-40" fill="#8B5A3C"/>
    <path d="M -3,-40 Q -12,-55 -12,-75 Q -12,-88 0,-98 Q 12,-88 12,-75 Q 12,-55 3,-40" fill="#A0704D"/>
    
    <!-- Left bean -->
    <path d="M -60,-15 Q -85,-25 -100,-15 Q -110,0 -100,15 Q -85,25 -60,15" fill="#8B5A3C"/>
    <path d="M -58,-12 Q -80,-22 -95,-12 Q -105,2 -95,18 Q -80,28 -58,18" fill="#A0704D"/>
    
    <!-- Right bean -->
    <path d="M 60,-15 Q 85,-25 100,-15 Q 110,0 100,15 Q 85,25 60,15" fill="#8B5A3C"/>
    <path d="M 58,-12 Q 80,-22 95,-12 Q 105,2 95,18 Q 80,28 58,18" fill="#A0704D"/>
    
    <!-- Bottom left bean -->
    <path d="M -45,40 Q -70,35 -85,50 Q -90,70 -75,85 Q -50,95 -30,80" fill="#8B5A3C"/>
    <path d="M -42,43 Q -65,40 -80,52 Q -87,68 -72,82 Q -48,92 -32,77" fill="#A0704D"/>
    
    <!-- Bottom right bean -->
    <path d="M 45,40 Q 70,35 85,50 Q 90,70 75,85 Q 50,95 30,80" fill="#8B5A3C"/>
    <path d="M 42,43 Q 65,40 80,52 Q 87,68 72,82 Q 48,92 32,77" fill="#A0704D"/>
  </g>
  
  <!-- UI Text -->
  <text x="80" y="260" class="coffee-text ui-text">UI</text>
  
  <!-- COFFEE Text -->
  <text x="260" y="200" class="coffee-text coffee-label">COFFEE</text>
  
  <!-- Ampersand Symbol -->
  <text x="265" y="260" class="coffee-text" style="font-size: 35px; fill: #2d2d2d;">&amp;</text>
  
  <!-- EATERY Text -->
  <text x="310" y="260" class="coffee-text eatery-label">EATERY</text>
</svg>